<svg width="495" height="160" viewBox="0 0 495 160" xmlns="http://www.w3.org/2000/svg">
<style>
  text { font-family: "Segoe UI", Ubuntu, sans-serif; }
  .title { font-size: 14px; font-weight: 700; fill: #60A5FA; }
  .label { font-size: 12px; fill: #4A6A9E; }
  .value { font-size: 13px; font-weight: 600; fill: #C8D8F8; }
  .sub   { font-size: 11px; fill: #4A6A9E; }
</style>
<rect width="495" height="160" rx="12" fill="#01000E"/>
<rect x="1" y="1" width="493" height="158" rx="11" fill="#05061A" stroke="#0D1535" stroke-width="1"/>
<defs>
  <linearGradient id="areafill" x1="0" y1="0" x2="0" y2="1">
    <stop offset="0%" stop-color="#3B82F6" stop-opacity="0.35"/>
    <stop offset="100%" stop-color="#01000E" stop-opacity="0"/>
  </linearGradient>
</defs>
<text x="20" y="20" class="title">Contribution Activity</text>
<line x1="20" y1="98" x2="475" y2="98" stroke="#0D1535" stroke-width="0.5" stroke-dasharray="3,4"/>
<line x1="20" y1="75" x2="475" y2="75" stroke="#0D1535" stroke-width="0.5" stroke-dasharray="3,4"/>
<line x1="20" y1="53" x2="475" y2="53" stroke="#0D1535" stroke-width="0.5" stroke-dasharray="3,4"/>
<line x1="20" y1="30" x2="475" y2="30" stroke="#0D1535" stroke-width="0.5" stroke-dasharray="3,4"/>
<path d="M 20 120 C 22 120, 22 120, 25 120 C 27 120, 27 120, 30 120 C 32 120, 32 120, 35 120 C 37 120, 37 120, 40 120 C 42 120, 42 120, 45 120 C 47 120, 47 120, 50 120 C 52 120, 52 120, 55 120 C 57 120, 57 120, 60 120 C 63 120, 63 120, 66 120 C 68 120, 68 120, 71 120 C 73 120, 73 120, 76 120 C 78 120, 78 120, 81 120 C 83 120, 83 120, 86 120 C 88 120, 88 120, 91 120 C 93 120, 93 120, 96 120 C 98 120, 98 120, 101 120 C 103 120, 103 120, 106 120 C 109 120, 109 120, 112 120 C 114 120, 114 120, 117 120 C 119 120, 119 120, 122 120 C 124 120, 124 120, 127 120 C 129 120, 129 120, 132 120 C 134 120, 134 120, 137 120 C 139 120, 139 120, 142 120 C 144 120, 144 30, 147 30 C 149 30, 149 111, 152 111 C 155 111, 155 102, 158 102 C 160 102, 160 111, 163 111 C 165 111, 165 111, 168 111 C 170 111, 170 120, 173 120 C 175 120, 175 120, 178 120 C 180 120, 180 120, 183 120 C 185 120, 185 120, 188 120 C 190 120, 190 120, 193 120 C 195 120, 195 120, 198 120 C 201 120, 201 120, 204 120 C 206 120, 206 120, 209 120 C 211 120, 211 120, 214 120 C 216 120, 216 120, 219 120 C 221 120, 221 120, 224 120 C 226 120, 226 120, 229 120 C 231 120, 231 120, 234 120 C 236 120, 236 120, 239 120 C 241 120, 241 120, 244 120 C 247 120, 247 120, 250 120 C 252 120, 252 120, 255 120 C 257 120, 257 120, 260 120 C 262 120, 262 93, 265 93 C 267 93, 267 111, 270 111 C 272 111, 272 102, 275 102 C 277 102, 277 102, 280 102 C 282 102, 282 120, 285 120 C 287 120, 287 111, 290 111 C 293 111, 293 120, 296 120 C 298 120, 298 120, 301 120 C 303 120, 303 111, 306 111 C 308 111, 308 120, 311 120 C 313 120, 313 120, 316 120 C 318 120, 318 120, 321 120 C 323 120, 323 93, 326 93 C 328 93, 328 120, 331 120 C 333 120, 333 120, 336 120 C 339 120, 339 120, 342 120 C 344 120, 344 120, 347 120 C 349 120, 349 120, 352 120 C 354 120, 354 120, 357 120 C 359 120, 359 120, 362 120 C 364 120, 364 75, 367 75 C 369 75, 369 102, 372 102 C 374 102, 374 120, 377 120 C 379 120, 379 120, 382 120 C 385 120, 385 120, 388 120 C 390 120, 390 102, 393 102 C 395 102, 395 111, 398 111 C 400 111, 400 120, 403 120 C 405 120, 405 102, 408 102 C 410 102, 410 120, 413 120 C 415 120, 415 111, 418 111 C 420 111, 420 111, 423 111 C 425 111, 425 120, 428 120 C 431 120, 431 120, 434 120 C 436 120, 436 120, 439 120 C 441 120, 441 120, 444 120 C 446 120, 446 120, 449 120 C 451 120, 451 120, 454 120 C 456 120, 456 120, 459 120 C 461 120, 461 120, 464 120 C 466 120, 466 120, 469 120 C 472 120, 472 120, 475 120 L 475 120 L 20 120 Z" fill="url(#areafill)"/>
<path d="M 20 120 C 22 120, 22 120, 25 120 C 27 120, 27 120, 30 120 C 32 120, 32 120, 35 120 C 37 120, 37 120, 40 120 C 42 120, 42 120, 45 120 C 47 120, 47 120, 50 120 C 52 120, 52 120, 55 120 C 57 120, 57 120, 60 120 C 63 120, 63 120, 66 120 C 68 120, 68 120, 71 120 C 73 120, 73 120, 76 120 C 78 120, 78 120, 81 120 C 83 120, 83 120, 86 120 C 88 120, 88 120, 91 120 C 93 120, 93 120, 96 120 C 98 120, 98 120, 101 120 C 103 120, 103 120, 106 120 C 109 120, 109 120, 112 120 C 114 120, 114 120, 117 120 C 119 120, 119 120, 122 120 C 124 120, 124 120, 127 120 C 129 120, 129 120, 132 120 C 134 120, 134 120, 137 120 C 139 120, 139 120, 142 120 C 144 120, 144 30, 147 30 C 149 30, 149 111, 152 111 C 155 111, 155 102, 158 102 C 160 102, 160 111, 163 111 C 165 111, 165 111, 168 111 C 170 111, 170 120, 173 120 C 175 120, 175 120, 178 120 C 180 120, 180 120, 183 120 C 185 120, 185 120, 188 120 C 190 120, 190 120, 193 120 C 195 120, 195 120, 198 120 C 201 120, 201 120, 204 120 C 206 120, 206 120, 209 120 C 211 120, 211 120, 214 120 C 216 120, 216 120, 219 120 C 221 120, 221 120, 224 120 C 226 120, 226 120, 229 120 C 231 120, 231 120, 234 120 C 236 120, 236 120, 239 120 C 241 120, 241 120, 244 120 C 247 120, 247 120, 250 120 C 252 120, 252 120, 255 120 C 257 120, 257 120, 260 120 C 262 120, 262 93, 265 93 C 267 93, 267 111, 270 111 C 272 111, 272 102, 275 102 C 277 102, 277 102, 280 102 C 282 102, 282 120, 285 120 C 287 120, 287 111, 290 111 C 293 111, 293 120, 296 120 C 298 120, 298 120, 301 120 C 303 120, 303 111, 306 111 C 308 111, 308 120, 311 120 C 313 120, 313 120, 316 120 C 318 120, 318 120, 321 120 C 323 120, 323 93, 326 93 C 328 93, 328 120, 331 120 C 333 120, 333 120, 336 120 C 339 120, 339 120, 342 120 C 344 120, 344 120, 347 120 C 349 120, 349 120, 352 120 C 354 120, 354 120, 357 120 C 359 120, 359 120, 362 120 C 364 120, 364 75, 367 75 C 369 75, 369 102, 372 102 C 374 102, 374 120, 377 120 C 379 120, 379 120, 382 120 C 385 120, 385 120, 388 120 C 390 120, 390 102, 393 102 C 395 102, 395 111, 398 111 C 400 111, 400 120, 403 120 C 405 120, 405 102, 408 102 C 410 102, 410 120, 413 120 C 415 120, 415 111, 418 111 C 420 111, 420 111, 423 111 C 425 111, 425 120, 428 120 C 431 120, 431 120, 434 120 C 436 120, 436 120, 439 120 C 441 120, 441 120, 444 120 C 446 120, 446 120, 449 120 C 451 120, 451 120, 454 120 C 456 120, 456 120, 459 120 C 461 120, 461 120, 464 120 C 466 120, 466 120, 469 120 C 472 120, 472 120, 475 120" fill="none" stroke="#3B82F6" stroke-width="2" stroke-linecap="round" stroke-linejoin="round"/>
<circle cx="147" cy="30" r="3" fill="#60A5FA" stroke="#01000E" stroke-width="1.5"/>
<text x="20" y="136" class="sub" text-anchor="middle">Mar</text>
<text x="112" y="136" class="sub" text-anchor="middle">Apr</text>
<text x="265" y="136" class="sub" text-anchor="middle">May</text>
<text x="423" y="136" class="sub" text-anchor="middle">Jun</text>
<line x1="20" y1="120" x2="475" y2="120" stroke="#0D1535" stroke-width="0.5"/>
</svg>