<svg width="495" height="160" viewBox="0 0 495 160" xmlns="http://www.w3.org/2000/svg">
<style>
  text { font-family: "Segoe UI", Ubuntu, sans-serif; }
  .title { font-size: 14px; font-weight: 700; fill: #60A5FA; }
  .label { font-size: 12px; fill: #4A6A9E; }
  .value { font-size: 13px; font-weight: 600; fill: #C8D8F8; }
  .sub   { font-size: 11px; fill: #4A6A9E; }
</style>
<rect width="495" height="160" rx="12" fill="#01000E"/>
<rect x="1" y="1" width="493" height="158" rx="11" fill="#05061A" stroke="#0D1535" stroke-width="1"/>
<defs>
  <linearGradient id="areafill" x1="0" y1="0" x2="0" y2="1">
    <stop offset="0%" stop-color="#3B82F6" stop-opacity="0.35"/>
    <stop offset="100%" stop-color="#01000E" stop-opacity="0"/>
  </linearGradient>
</defs>
<text x="20" y="20" class="title">Contribution Activity</text>
<line x1="20" y1="98" x2="475" y2="98" stroke="#0D1535" stroke-width="0.5" stroke-dasharray="3,4"/>
<line x1="20" y1="75" x2="475" y2="75" stroke="#0D1535" stroke-width="0.5" stroke-dasharray="3,4"/>
<line x1="20" y1="53" x2="475" y2="53" stroke="#0D1535" stroke-width="0.5" stroke-dasharray="3,4"/>
<line x1="20" y1="30" x2="475" y2="30" stroke="#0D1535" stroke-width="0.5" stroke-dasharray="3,4"/>
<path d="M 20 120 C 22 120, 22 120, 25 120 C 27 120, 27 120, 30 120 C 32 120, 32 120, 35 120 C 37 120, 37 120, 40 120 C 42 120, 42 120, 45 120 C 47 120, 47 120, 50 120 C 52 120, 52 120, 55 120 C 57 120, 57 120, 60 120 C 63 120, 63 120, 66 120 C 68 120, 68 120, 71 120 C 73 120, 73 120, 76 120 C 78 120, 78 120, 81 120 C 83 120, 83 120, 86 120 C 88 120, 88 120, 91 120 C 93 120, 93 120, 96 120 C 98 120, 98 120, 101 120 C 103 120, 103 120, 106 120 C 109 120, 109 120, 112 120 C 114 120, 114 120, 117 120 C 119 120, 119 120, 122 120 C 124 120, 124 120, 127 120 C 129 120, 129 120, 132 120 C 134 120, 134 120, 137 120 C 139 120, 139 120, 142 120 C 144 120, 144 120, 147 120 C 149 120, 149 30, 152 30 C 155 30, 155 111, 158 111 C 160 111, 160 102, 163 102 C 165 102, 165 111, 168 111 C 170 111, 170 111, 173 111 C 175 111, 175 120, 178 120 C 180 120, 180 120, 183 120 C 185 120, 185 120, 188 120 C 190 120, 190 120, 193 120 C 195 120, 195 120, 198 120 C 201 120, 201 120, 204 120 C 206 120, 206 120, 209 120 C 211 120, 211 120, 214 120 C 216 120, 216 120, 219 120 C 221 120, 221 120, 224 120 C 226 120, 226 120, 229 120 C 231 120, 231 120, 234 120 C 236 120, 236 120, 239 120 C 241 120, 241 120, 244 120 C 247 120, 247 120, 250 120 C 252 120, 252 120, 255 120 C 257 120, 257 120, 260 120 C 262 120, 262 120, 265 120 C 267 120, 267 93, 270 93 C 272 93, 272 111, 275 111 C 277 111, 277 102, 280 102 C 282 102, 282 102, 285 102 C 287 102, 287 120, 290 120 C 293 120, 293 111, 296 111 C 298 111, 298 120, 301 120 C 303 120, 303 120, 306 120 C 308 120, 308 111, 311 111 C 313 111, 313 120, 316 120 C 318 120, 318 120, 321 120 C 323 120, 323 120, 326 120 C 328 120, 328 93, 331 93 C 333 93, 333 120, 336 120 C 339 120, 339 120, 342 120 C 344 120, 344 120, 347 120 C 349 120, 349 120, 352 120 C 354 120, 354 120, 357 120 C 359 120, 359 120, 362 120 C 364 120, 364 120, 367 120 C 369 120, 369 75, 372 75 C 374 75, 374 102, 377 102 C 379 102, 379 120, 382 120 C 385 120, 385 120, 388 120 C 390 120, 390 120, 393 120 C 395 120, 395 102, 398 102 C 400 102, 400 111, 403 111 C 405 111, 405 120, 408 120 C 410 120, 410 102, 413 102 C 415 102, 415 120, 418 120 C 420 120, 420 111, 423 111 C 425 111, 425 111, 428 111 C 431 111, 431 120, 434 120 C 436 120, 436 120, 439 120 C 441 120, 441 120, 444 120 C 446 120, 446 120, 449 120 C 451 120, 451 120, 454 120 C 456 120, 456 120, 459 120 C 461 120, 461 120, 464 120 C 466 120, 466 120, 469 120 C 472 120, 472 120, 475 120 L 475 120 L 20 120 Z" fill="url(#areafill)"/>
<path d="M 20 120 C 22 120, 22 120, 25 120 C 27 120, 27 120, 30 120 C 32 120, 32 120, 35 120 C 37 120, 37 120, 40 120 C 42 120, 42 120, 45 120 C 47 120, 47 120, 50 120 C 52 120, 52 120, 55 120 C 57 120, 57 120, 60 120 C 63 120, 63 120, 66 120 C 68 120, 68 120, 71 120 C 73 120, 73 120, 76 120 C 78 120, 78 120, 81 120 C 83 120, 83 120, 86 120 C 88 120, 88 120, 91 120 C 93 120, 93 120, 96 120 C 98 120, 98 120, 101 120 C 103 120, 103 120, 106 120 C 109 120, 109 120, 112 120 C 114 120, 114 120, 117 120 C 119 120, 119 120, 122 120 C 124 120, 124 120, 127 120 C 129 120, 129 120, 132 120 C 134 120, 134 120, 137 120 C 139 120, 139 120, 142 120 C 144 120, 144 120, 147 120 C 149 120, 149 30, 152 30 C 155 30, 155 111, 158 111 C 160 111, 160 102, 163 102 C 165 102, 165 111, 168 111 C 170 111, 170 111, 173 111 C 175 111, 175 120, 178 120 C 180 120, 180 120, 183 120 C 185 120, 185 120, 188 120 C 190 120, 190 120, 193 120 C 195 120, 195 120, 198 120 C 201 120, 201 120, 204 120 C 206 120, 206 120, 209 120 C 211 120, 211 120, 214 120 C 216 120, 216 120, 219 120 C 221 120, 221 120, 224 120 C 226 120, 226 120, 229 120 C 231 120, 231 120, 234 120 C 236 120, 236 120, 239 120 C 241 120, 241 120, 244 120 C 247 120, 247 120, 250 120 C 252 120, 252 120, 255 120 C 257 120, 257 120, 260 120 C 262 120, 262 120, 265 120 C 267 120, 267 93, 270 93 C 272 93, 272 111, 275 111 C 277 111, 277 102, 280 102 C 282 102, 282 102, 285 102 C 287 102, 287 120, 290 120 C 293 120, 293 111, 296 111 C 298 111, 298 120, 301 120 C 303 120, 303 120, 306 120 C 308 120, 308 111, 311 111 C 313 111, 313 120, 316 120 C 318 120, 318 120, 321 120 C 323 120, 323 120, 326 120 C 328 120, 328 93, 331 93 C 333 93, 333 120, 336 120 C 339 120, 339 120, 342 120 C 344 120, 344 120, 347 120 C 349 120, 349 120, 352 120 C 354 120, 354 120, 357 120 C 359 120, 359 120, 362 120 C 364 120, 364 120, 367 120 C 369 120, 369 75, 372 75 C 374 75, 374 102, 377 102 C 379 102, 379 120, 382 120 C 385 120, 385 120, 388 120 C 390 120, 390 120, 393 120 C 395 120, 395 102, 398 102 C 400 102, 400 111, 403 111 C 405 111, 405 120, 408 120 C 410 120, 410 102, 413 102 C 415 102, 415 120, 418 120 C 420 120, 420 111, 423 111 C 425 111, 425 111, 428 111 C 431 111, 431 120, 434 120 C 436 120, 436 120, 439 120 C 441 120, 441 120, 444 120 C 446 120, 446 120, 449 120 C 451 120, 451 120, 454 120 C 456 120, 456 120, 459 120 C 461 120, 461 120, 464 120 C 466 120, 466 120, 469 120 C 472 120, 472 120, 475 120" fill="none" stroke="#3B82F6" stroke-width="2" stroke-linecap="round" stroke-linejoin="round"/>
<circle cx="152" cy="30" r="3" fill="#60A5FA" stroke="#01000E" stroke-width="1.5"/>
<text x="20" y="136" class="sub" text-anchor="middle">Mar</text>
<text x="117" y="136" class="sub" text-anchor="middle">Apr</text>
<text x="270" y="136" class="sub" text-anchor="middle">May</text>
<text x="428" y="136" class="sub" text-anchor="middle">Jun</text>
<line x1="20" y1="120" x2="475" y2="120" stroke="#0D1535" stroke-width="0.5"/>
</svg>