<svg width="495" height="160" viewBox="0 0 495 160" xmlns="http://www.w3.org/2000/svg">
<style>
  text { font-family: "Segoe UI", Ubuntu, sans-serif; }
  .title { font-size: 14px; font-weight: 700; fill: #60A5FA; }
  .label { font-size: 12px; fill: #4A6A9E; }
  .value { font-size: 13px; font-weight: 600; fill: #C8D8F8; }
  .sub   { font-size: 11px; fill: #4A6A9E; }
</style>
<rect width="495" height="160" rx="12" fill="#01000E"/>
<rect x="1" y="1" width="493" height="158" rx="11" fill="#05061A" stroke="#0D1535" stroke-width="1"/>
<defs>
  <linearGradient id="areafill" x1="0" y1="0" x2="0" y2="1">
    <stop offset="0%" stop-color="#3B82F6" stop-opacity="0.35"/>
    <stop offset="100%" stop-color="#01000E" stop-opacity="0"/>
  </linearGradient>
</defs>
<text x="20" y="20" class="title">Contribution Activity</text>
<line x1="20" y1="98" x2="475" y2="98" stroke="#0D1535" stroke-width="0.5" stroke-dasharray="3,4"/>
<line x1="20" y1="75" x2="475" y2="75" stroke="#0D1535" stroke-width="0.5" stroke-dasharray="3,4"/>
<line x1="20" y1="53" x2="475" y2="53" stroke="#0D1535" stroke-width="0.5" stroke-dasharray="3,4"/>
<line x1="20" y1="30" x2="475" y2="30" stroke="#0D1535" stroke-width="0.5" stroke-dasharray="3,4"/>
<path d="M 20 95 C 22 95, 22 108, 25 108 C 27 108, 27 108, 30 108 C 32 108, 32 120, 35 120 C 37 120, 37 120, 40 120 C 42 120, 42 120, 45 120 C 47 120, 47 120, 50 120 C 52 120, 52 120, 55 120 C 57 120, 57 120, 60 120 C 63 120, 63 120, 66 120 C 68 120, 68 120, 71 120 C 73 120, 73 120, 76 120 C 78 120, 78 120, 81 120 C 83 120, 83 120, 86 120 C 88 120, 88 120, 91 120 C 93 120, 93 120, 96 120 C 98 120, 98 120, 101 120 C 103 120, 103 120, 106 120 C 109 120, 109 120, 112 120 C 114 120, 114 120, 117 120 C 119 120, 119 120, 122 120 C 124 120, 124 82, 127 82 C 129 82, 129 108, 132 108 C 134 108, 134 95, 137 95 C 139 95, 139 95, 142 95 C 144 95, 144 120, 147 120 C 149 120, 149 108, 152 108 C 155 108, 155 120, 158 120 C 160 120, 160 120, 163 120 C 165 120, 165 108, 168 108 C 170 108, 170 120, 173 120 C 175 120, 175 120, 178 120 C 180 120, 180 120, 183 120 C 185 120, 185 82, 188 82 C 190 82, 190 120, 193 120 C 195 120, 195 120, 198 120 C 201 120, 201 120, 204 120 C 206 120, 206 120, 209 120 C 211 120, 211 120, 214 120 C 216 120, 216 120, 219 120 C 221 120, 221 120, 224 120 C 226 120, 226 56, 229 56 C 231 56, 231 95, 234 95 C 236 95, 236 120, 239 120 C 241 120, 241 120, 244 120 C 247 120, 247 120, 250 120 C 252 120, 252 95, 255 95 C 257 95, 257 108, 260 108 C 262 108, 262 120, 265 120 C 267 120, 267 95, 270 95 C 272 95, 272 120, 275 120 C 277 120, 277 108, 280 108 C 282 108, 282 108, 285 108 C 287 108, 287 120, 290 120 C 293 120, 293 120, 296 120 C 298 120, 298 120, 301 120 C 303 120, 303 120, 306 120 C 308 120, 308 120, 311 120 C 313 120, 313 120, 316 120 C 318 120, 318 120, 321 120 C 323 120, 323 120, 326 120 C 328 120, 328 120, 331 120 C 333 120, 333 120, 336 120 C 339 120, 339 120, 342 120 C 344 120, 344 120, 347 120 C 349 120, 349 95, 352 95 C 354 95, 354 120, 357 120 C 359 120, 359 120, 362 120 C 364 120, 364 120, 367 120 C 369 120, 369 120, 372 120 C 374 120, 374 108, 377 108 C 379 108, 379 120, 382 120 C 385 120, 385 120, 388 120 C 390 120, 390 120, 393 120 C 395 120, 395 120, 398 120 C 400 120, 400 120, 403 120 C 405 120, 405 108, 408 108 C 410 108, 410 108, 413 108 C 415 108, 415 120, 418 120 C 420 120, 420 95, 423 95 C 425 95, 425 108, 428 108 C 431 108, 431 120, 434 120 C 436 120, 436 108, 439 108 C 441 108, 441 30, 444 30 C 446 30, 446 108, 449 108 C 451 108, 451 108, 454 108 C 456 108, 456 108, 459 108 C 461 108, 461 120, 464 120 C 466 120, 466 82, 469 82 C 472 82, 472 95, 475 95 L 475 120 L 20 120 Z" fill="url(#areafill)"/>
<path d="M 20 95 C 22 95, 22 108, 25 108 C 27 108, 27 108, 30 108 C 32 108, 32 120, 35 120 C 37 120, 37 120, 40 120 C 42 120, 42 120, 45 120 C 47 120, 47 120, 50 120 C 52 120, 52 120, 55 120 C 57 120, 57 120, 60 120 C 63 120, 63 120, 66 120 C 68 120, 68 120, 71 120 C 73 120, 73 120, 76 120 C 78 120, 78 120, 81 120 C 83 120, 83 120, 86 120 C 88 120, 88 120, 91 120 C 93 120, 93 120, 96 120 C 98 120, 98 120, 101 120 C 103 120, 103 120, 106 120 C 109 120, 109 120, 112 120 C 114 120, 114 120, 117 120 C 119 120, 119 120, 122 120 C 124 120, 124 82, 127 82 C 129 82, 129 108, 132 108 C 134 108, 134 95, 137 95 C 139 95, 139 95, 142 95 C 144 95, 144 120, 147 120 C 149 120, 149 108, 152 108 C 155 108, 155 120, 158 120 C 160 120, 160 120, 163 120 C 165 120, 165 108, 168 108 C 170 108, 170 120, 173 120 C 175 120, 175 120, 178 120 C 180 120, 180 120, 183 120 C 185 120, 185 82, 188 82 C 190 82, 190 120, 193 120 C 195 120, 195 120, 198 120 C 201 120, 201 120, 204 120 C 206 120, 206 120, 209 120 C 211 120, 211 120, 214 120 C 216 120, 216 120, 219 120 C 221 120, 221 120, 224 120 C 226 120, 226 56, 229 56 C 231 56, 231 95, 234 95 C 236 95, 236 120, 239 120 C 241 120, 241 120, 244 120 C 247 120, 247 120, 250 120 C 252 120, 252 95, 255 95 C 257 95, 257 108, 260 108 C 262 108, 262 120, 265 120 C 267 120, 267 95, 270 95 C 272 95, 272 120, 275 120 C 277 120, 277 108, 280 108 C 282 108, 282 108, 285 108 C 287 108, 287 120, 290 120 C 293 120, 293 120, 296 120 C 298 120, 298 120, 301 120 C 303 120, 303 120, 306 120 C 308 120, 308 120, 311 120 C 313 120, 313 120, 316 120 C 318 120, 318 120, 321 120 C 323 120, 323 120, 326 120 C 328 120, 328 120, 331 120 C 333 120, 333 120, 336 120 C 339 120, 339 120, 342 120 C 344 120, 344 120, 347 120 C 349 120, 349 95, 352 95 C 354 95, 354 120, 357 120 C 359 120, 359 120, 362 120 C 364 120, 364 120, 367 120 C 369 120, 369 120, 372 120 C 374 120, 374 108, 377 108 C 379 108, 379 120, 382 120 C 385 120, 385 120, 388 120 C 390 120, 390 120, 393 120 C 395 120, 395 120, 398 120 C 400 120, 400 120, 403 120 C 405 120, 405 108, 408 108 C 410 108, 410 108, 413 108 C 415 108, 415 120, 418 120 C 420 120, 420 95, 423 95 C 425 95, 425 108, 428 108 C 431 108, 431 120, 434 120 C 436 120, 436 108, 439 108 C 441 108, 441 30, 444 30 C 446 30, 446 108, 449 108 C 451 108, 451 108, 454 108 C 456 108, 456 108, 459 108 C 461 108, 461 120, 464 120 C 466 120, 466 82, 469 82 C 472 82, 472 95, 475 95" fill="none" stroke="#3B82F6" stroke-width="2" stroke-linecap="round" stroke-linejoin="round"/>
<circle cx="444" cy="30" r="3" fill="#60A5FA" stroke="#01000E" stroke-width="1.5"/>
<text x="20" y="136" class="sub" text-anchor="middle">Apr</text>
<text x="127" y="136" class="sub" text-anchor="middle">May</text>
<text x="285" y="136" class="sub" text-anchor="middle">Jun</text>
<text x="439" y="136" class="sub" text-anchor="middle">Jul</text>
<line x1="20" y1="120" x2="475" y2="120" stroke="#0D1535" stroke-width="0.5"/>
</svg>