<svg width="300" height="200" viewBox="0 0 300 200" xmlns="http://www.w3.org/2000/svg">
<style>
  text { font-family: "Segoe UI", Ubuntu, sans-serif; }
  .title { font-size: 14px; font-weight: 700; fill: #58A6FF; }
  .label { font-size: 12px; fill: #8892B0; }
  .value { font-size: 13px; font-weight: 600; fill: #E8EAF6; }
  .big   { font-size: 28px; font-weight: 700; fill: #E8EAF6; }
  .sub   { font-size: 11px; fill: #8892B0; }
</style>
<rect width="300" height="200" rx="12" fill="#1F222E" />
<rect x="1" y="1" width="298" height="198" rx="11" fill="#262B3D" stroke="#2E3250" stroke-width="1"/>
<text x="20" y="32" class="title">💻 Top Languages</text>
<rect x="20" y="48" width="260" height="8" rx="4" fill="#2E3250"/>
<rect x="20" y="48" width="74" height="8" fill="#f1e05a"/>
<rect x="94" y="48" width="54" height="8" fill="#3572A5"/>
<rect x="148" y="48" width="42" height="8" fill="#f34b7d"/>
<rect x="190" y="48" width="40" height="8" fill="#e34c26"/>
<rect x="230" y="48" width="29" height="8" fill="#555555"/>
<rect x="259" y="48" width="16" height="8" fill="#663399"/>
<circle cx="26" cy="80" r="5" fill="#f1e05a"/>
<text x="36" y="84" class="label">JavaScript</text>
<text x="150" y="84" class="sub" text-anchor="end">28.6%</text>
<circle cx="171" cy="80" r="5" fill="#3572A5"/>
<text x="181" y="84" class="label">Python</text>
<text x="295" y="84" class="sub" text-anchor="end">20.9%</text>
<circle cx="26" cy="116" r="5" fill="#f34b7d"/>
<text x="36" y="120" class="label">C++</text>
<text x="150" y="120" class="sub" text-anchor="end">16.2%</text>
<circle cx="171" cy="116" r="5" fill="#e34c26"/>
<text x="181" y="120" class="label">HTML</text>
<text x="295" y="120" class="sub" text-anchor="end">15.7%</text>
<circle cx="26" cy="152" r="5" fill="#555555"/>
<text x="36" y="156" class="label">C</text>
<text x="150" y="156" class="sub" text-anchor="end">11.2%</text>
<circle cx="171" cy="152" r="5" fill="#663399"/>
<text x="181" y="156" class="label">CSS</text>
<text x="295" y="156" class="sub" text-anchor="end">6.4%</text>
</svg>