<svg width="504" height="205" viewBox="0 0 504 205" xmlns="http://www.w3.org/2000/svg">
<style>
  text { font-family: "Segoe UI", Ubuntu, sans-serif; }
  .title { font-size: 14px; font-weight: 700; fill: #60A5FA; }
  .label { font-size: 12px; fill: #4A6A9E; }
  .value { font-size: 13px; font-weight: 600; fill: #C8D8F8; }
  .sub   { font-size: 11px; fill: #4A6A9E; }
</style>
<rect width="504" height="205" rx="12" fill="#01000E"/>
<rect x="1" y="1" width="502" height="203" rx="11" fill="#05061A" stroke="#0D1535" stroke-width="1"/>
<text x="20" y="32" class="title">Top Languages</text>
<line x1="20" y1="42" x2="484" y2="42" stroke="#0D1535" stroke-width="0.5"/>
<rect x="20" y="52" width="464" height="7" rx="3" fill="#0D1535"/>
<rect x="20" y="52" width="105" height="7" fill="#3572A5"/>
<rect x="125" y="52" width="97" height="7" fill="#f1e05a"/>
<rect x="222" y="52" width="92" height="7" fill="#f34b7d"/>
<rect x="314" y="52" width="72" height="7" fill="#e34c26"/>
<rect x="386" y="52" width="61" height="7" fill="#555555"/>
<rect x="447" y="52" width="28" height="7" fill="#663399"/>
<circle cx="26" cy="82" r="5" fill="#3572A5"/>
<text x="36" y="86" class="label">Python</text>
<text x="240" y="86" class="sub" text-anchor="end">22.8%</text>
<circle cx="258" cy="82" r="5" fill="#f1e05a"/>
<text x="268" y="86" class="label">JavaScript</text>
<text x="472" y="86" class="sub" text-anchor="end">21.1%</text>
<circle cx="26" cy="118" r="5" fill="#f34b7d"/>
<text x="36" y="122" class="label">C++</text>
<text x="240" y="122" class="sub" text-anchor="end">19.9%</text>
<circle cx="258" cy="118" r="5" fill="#e34c26"/>
<text x="268" y="122" class="label">HTML</text>
<text x="472" y="122" class="sub" text-anchor="end">15.6%</text>
<circle cx="26" cy="154" r="5" fill="#555555"/>
<text x="36" y="158" class="label">C</text>
<text x="240" y="158" class="sub" text-anchor="end">13.3%</text>
<circle cx="258" cy="154" r="5" fill="#663399"/>
<text x="268" y="158" class="label">CSS</text>
<text x="472" y="158" class="sub" text-anchor="end">6.2%</text>
</svg>