<svg width="495" height="195" viewBox="0 0 495 195" xmlns="http://www.w3.org/2000/svg">
<style>
  text { font-family: "Segoe UI", Ubuntu, sans-serif; }
  .title { font-size: 14px; font-weight: 700; fill: #60A5FA; }
  .label { font-size: 12px; fill: #4A6A9E; }
  .value { font-size: 13px; font-weight: 600; fill: #C8D8F8; }
  .sub   { font-size: 11px; fill: #4A6A9E; }
</style>
<rect width="495" height="195" rx="12" fill="#01000E"/>
<rect x="1" y="1" width="493" height="193" rx="11" fill="#05061A" stroke="#0D1535" stroke-width="1"/>
<text x="25" y="35" class="title">GitHub Stats</text>
<line x1="25" y1="45" x2="470" y2="45" stroke="#0D1535" stroke-width="0.5"/>
<rect x="26" y="63" width="6" height="6" rx="1" fill="#60A5FA" opacity="0.8"/>
<text x="40" y="72" class="label">Total Stars</text>
<text x="228" y="72" class="value" text-anchor="end" fill="#60A5FA">9</text>
<rect x="266" y="63" width="6" height="6" rx="1" fill="#3B82F6" opacity="0.8"/>
<text x="280" y="72" class="label">Total Commits</text>
<text x="468" y="72" class="value" text-anchor="end" fill="#3B82F6">443</text>
<rect x="26" y="99" width="6" height="6" rx="1" fill="#818CF8" opacity="0.8"/>
<text x="40" y="108" class="label">Pull Requests</text>
<text x="228" y="108" class="value" text-anchor="end" fill="#818CF8">13</text>
<rect x="266" y="99" width="6" height="6" rx="1" fill="#93C5FD" opacity="0.8"/>
<text x="280" y="108" class="label">Issues</text>
<text x="468" y="108" class="value" text-anchor="end" fill="#93C5FD">0</text>
<rect x="26" y="135" width="6" height="6" rx="1" fill="#60A5FA" opacity="0.8"/>
<text x="40" y="144" class="label">Contributed To</text>
<text x="228" y="144" class="value" text-anchor="end" fill="#60A5FA">13</text>
<rect x="266" y="135" width="6" height="6" rx="1" fill="#3B82F6" opacity="0.8"/>
<text x="280" y="144" class="label">Followers</text>
<text x="468" y="144" class="value" text-anchor="end" fill="#3B82F6">21</text>
<rect x="25" y="175" width="445" height="2" rx="1" fill="#0D1535"/>
<rect x="25" y="175" width="217" height="2" rx="1" fill="#3B82F6"/>
<text x="25" y="189" class="sub">489 contributions this year</text>
</svg>