<svg width="495" height="195" viewBox="0 0 495 195" xmlns="http://www.w3.org/2000/svg">
<style>
  text { font-family: "Segoe UI", Ubuntu, sans-serif; }
  .title { font-size: 14px; font-weight: 700; fill: #58A6FF; }
  .label { font-size: 12px; fill: #8892B0; }
  .value { font-size: 13px; font-weight: 600; fill: #E8EAF6; }
  .big   { font-size: 28px; font-weight: 700; fill: #E8EAF6; }
  .sub   { font-size: 11px; fill: #8892B0; }
</style>
<rect width="495" height="195" rx="12" fill="#1F222E" />
<rect x="1" y="1" width="493" height="193" rx="11" fill="#262B3D" stroke="#2E3250" stroke-width="1"/>
<text x="25" y="35" class="title">📊 Safal Gautam's GitHub Stats</text>
<circle cx="17" cy="66" r="3" fill="#58A6FF" opacity="0.6"/>
<text x="25" y="70" class="label">⭐ Total Stars</text>
<text x="220" y="70" class="value" text-anchor="end">9</text>
<circle cx="257" cy="66" r="3" fill="#58A6FF" opacity="0.6"/>
<text x="265" y="70" class="label">🔨 Total Commits</text>
<text x="460" y="70" class="value" text-anchor="end">456</text>
<circle cx="17" cy="104" r="3" fill="#58A6FF" opacity="0.6"/>
<text x="25" y="108" class="label">🔀 Pull Requests</text>
<text x="220" y="108" class="value" text-anchor="end">13</text>
<circle cx="257" cy="104" r="3" fill="#58A6FF" opacity="0.6"/>
<text x="265" y="108" class="label">🐛 Issues</text>
<text x="460" y="108" class="value" text-anchor="end">0</text>
<circle cx="17" cy="142" r="3" fill="#58A6FF" opacity="0.6"/>
<text x="25" y="146" class="label">📦 Contributed To</text>
<text x="220" y="146" class="value" text-anchor="end">15</text>
<circle cx="257" cy="142" r="3" fill="#58A6FF" opacity="0.6"/>
<text x="265" y="146" class="label">👥 Followers</text>
<text x="460" y="146" class="value" text-anchor="end">21</text>
<rect x="25" y="177" width="445" height="3" rx="2" fill="#2E3250"/>
<rect x="25" y="177" width="215" height="3" rx="2" fill="#58A6FF"/>
<text x="25" y="191" class="sub">484 contributions this year</text>
</svg>